<svg width="24" height="24" viewBox="0 0 24 24" fill="none" xmlns="http://www.w3.org/2000/svg">
<rect width="24" height="24" rx="3" fill="black"/>
<path d="M6.8 21V14H8.66L11.21 18.15L9.7 18.14L12.28 14H14.08V21H12V19.33C12 18.73 12.0133 18.19 12.04 17.71C12.0733 17.23 12.1267 16.7533 12.2 16.28L12.44 16.91L10.75 19.53H10.09L8.43 16.91L8.68 16.28C8.75333 16.7267 8.80333 17.1867 8.83 17.66C8.86333 18.1267 8.88 18.6833 8.88 19.33V21H6.8ZM15.677 21V14H18.757C19.2836 14 19.767 14.0867 20.207 14.26C20.647 14.4333 21.0303 14.6767 21.357 14.99C21.6836 15.2967 21.9336 15.6633 22.107 16.09C22.287 16.5167 22.377 16.9867 22.377 17.5C22.377 18.0067 22.287 18.4767 22.107 18.91C21.9336 19.3367 21.6836 19.7067 21.357 20.02C21.0303 20.3267 20.647 20.5667 20.207 20.74C19.767 20.9133 19.2836 21 18.757 21H15.677ZM17.837 19.67L17.467 19.16H18.707C18.927 19.16 19.127 19.12 19.307 19.04C19.487 18.9533 19.6436 18.8367 19.777 18.69C19.9103 18.5433 20.0136 18.37 20.087 18.17C20.1603 17.9633 20.197 17.74 20.197 17.5C20.197 17.26 20.1603 17.04 20.087 16.84C20.0136 16.6333 19.9103 16.4567 19.777 16.31C19.6436 16.1633 19.487 16.05 19.307 15.97C19.127 15.8833 18.927 15.84 18.707 15.84H17.437L17.837 15.35V19.67Z"/>
<style>
    rect { fill: #000; }
    path { fill: #fff; }
    @media (prefers-color-scheme: dark) {
        path { fill: #000; }
        rect { fill: #fff; }
    }
</style>
</svg>
