<svg width="440" height="440" viewBox="0 0 440 440" fill="none" xmlns="http://www.w3.org/2000/svg">
<rect width="440" height="440" rx="16" fill="#DA4D08"/>
<path d="M45.3355 253V225.3L45.2355 200.5H57.6355L57.3355 222.7H58.1355C58.6022 217.033 59.5022 212.467 60.8355 209C62.2355 205.533 64.1022 203.033 66.4355 201.5C68.7689 199.9 71.5689 199.1 74.8355 199.1C78.1689 199.1 80.8689 199.967 82.9355 201.7C85.0689 203.367 86.6022 205.933 87.5355 209.4C88.5355 212.867 88.9355 217.3 88.7355 222.7H89.6355C90.0355 217.1 90.9689 212.567 92.4356 209.1C93.9022 205.633 95.8355 203.1 98.2355 201.5C100.636 199.9 103.536 199.1 106.936 199.1C109.669 199.1 112.036 199.6 114.036 200.6C116.036 201.6 117.702 203.1 119.036 205.1C120.369 207.1 121.369 209.633 122.036 212.7C122.702 215.7 123.036 219.267 123.036 223.4V253H108.636V224.7C108.636 221.833 108.402 219.433 107.936 217.5C107.469 215.567 106.736 214.167 105.736 213.3C104.736 212.367 103.469 211.9 101.936 211.9C99.8689 211.9 98.0355 212.767 96.4355 214.5C94.8355 216.233 93.5689 218.8 92.6355 222.2C91.7022 225.6 91.2355 229.833 91.2355 234.9V253H77.1355V224.3C77.1355 221.433 76.8689 219.1 76.3355 217.3C75.8689 215.5 75.1355 214.167 74.1355 213.3C73.1355 212.367 71.8689 211.9 70.3355 211.9C68.4022 211.9 66.6355 212.7 65.0355 214.3C63.4355 215.833 62.1355 218.3 61.1355 221.7C60.2022 225.1 59.7355 229.5 59.7355 234.9V253H45.3355ZM149.487 254.4C145.687 254.4 142.254 253.4 139.187 251.4C136.187 249.333 133.787 246.233 131.987 242.1C130.187 237.967 129.287 232.7 129.287 226.3C129.287 220.233 130.087 215.2 131.687 211.2C133.354 207.133 135.654 204.1 138.587 202.1C141.52 200.1 144.954 199.1 148.887 199.1C152.087 199.1 154.887 199.767 157.287 201.1C159.687 202.433 161.654 204.533 163.187 207.4C164.72 210.2 165.787 213.833 166.387 218.3H167.287C166.954 215.767 166.62 213.367 166.287 211.1C165.954 208.833 165.687 206.667 165.487 204.6C165.354 202.533 165.287 200.633 165.287 198.9V183.5H179.787L179.687 233.4L179.787 253H167.087L167.387 236.4H166.587C165.854 240.333 164.72 243.667 163.187 246.4C161.654 249.067 159.754 251.067 157.487 252.4C155.22 253.733 152.554 254.4 149.487 254.4ZM154.187 242.7C155.787 242.7 157.287 242.333 158.687 241.6C160.087 240.867 161.254 239.8 162.187 238.4C163.187 237 163.954 235.367 164.487 233.5C165.087 231.633 165.387 229.567 165.387 227.3V226.6C165.387 224.8 165.187 223.133 164.787 221.6C164.454 220 163.954 218.567 163.287 217.3C162.62 216.033 161.82 214.967 160.887 214.1C159.954 213.167 158.92 212.467 157.787 212C156.654 211.533 155.454 211.3 154.187 211.3C151.987 211.3 150.087 212.033 148.487 213.5C146.954 214.9 145.787 216.8 144.987 219.2C144.254 221.533 143.887 224.2 143.887 227.2C143.887 230.067 144.287 232.7 145.087 235.1C145.887 237.433 147.054 239.3 148.587 240.7C150.12 242.033 151.987 242.7 154.187 242.7ZM206.323 254.4C202.523 254.4 199.09 253.4 196.023 251.4C193.023 249.333 190.623 246.233 188.823 242.1C187.023 237.967 186.123 232.7 186.123 226.3C186.123 220.233 186.923 215.2 188.523 211.2C190.19 207.133 192.49 204.1 195.423 202.1C198.356 200.1 201.79 199.1 205.723 199.1C208.923 199.1 211.723 199.767 214.123 201.1C216.523 202.433 218.49 204.533 220.023 207.4C221.556 210.2 222.623 213.833 223.223 218.3H224.123C223.79 215.767 223.456 213.367 223.123 211.1C222.79 208.833 222.523 206.667 222.323 204.6C222.19 202.533 222.123 200.633 222.123 198.9V183.5H236.623L236.523 233.4L236.623 253H223.923L224.223 236.4H223.423C222.69 240.333 221.556 243.667 220.023 246.4C218.49 249.067 216.59 251.067 214.323 252.4C212.056 253.733 209.39 254.4 206.323 254.4ZM211.023 242.7C212.623 242.7 214.123 242.333 215.523 241.6C216.923 240.867 218.09 239.8 219.023 238.4C220.023 237 220.79 235.367 221.323 233.5C221.923 231.633 222.223 229.567 222.223 227.3V226.6C222.223 224.8 222.023 223.133 221.623 221.6C221.29 220 220.79 218.567 220.123 217.3C219.456 216.033 218.656 214.967 217.723 214.1C216.79 213.167 215.756 212.467 214.623 212C213.49 211.533 212.29 211.3 211.023 211.3C208.823 211.3 206.923 212.033 205.323 213.5C203.79 214.9 202.623 216.8 201.823 219.2C201.09 221.533 200.723 224.2 200.723 227.2C200.723 230.067 201.123 232.7 201.923 235.1C202.723 237.433 203.89 239.3 205.423 240.7C206.956 242.033 208.823 242.7 211.023 242.7ZM268.959 254.4C264.226 254.4 260.192 253.7 256.859 252.3C253.592 250.9 250.926 248.967 248.859 246.5C246.792 244.033 245.292 241.2 244.359 238C243.426 234.8 242.959 231.367 242.959 227.7C242.959 223.9 243.426 220.3 244.359 216.9C245.359 213.433 246.859 210.367 248.859 207.7C250.859 205.033 253.459 202.933 256.659 201.4C259.859 199.867 263.626 199.1 267.959 199.1C272.292 199.1 276.026 199.867 279.159 201.4C282.292 202.867 284.792 204.933 286.659 207.6C288.592 210.267 289.859 213.4 290.459 217C291.126 220.533 291.159 224.433 290.559 228.7L251.859 229.3V221.2L279.559 220.6L277.559 225.3C277.892 222.233 277.759 219.6 277.159 217.4C276.559 215.2 275.492 213.533 273.959 212.4C272.492 211.2 270.492 210.6 267.959 210.6C265.292 210.6 263.126 211.3 261.459 212.7C259.859 214.033 258.692 215.933 257.959 218.4C257.226 220.867 256.859 223.733 256.859 227C256.859 232.667 257.859 236.833 259.859 239.5C261.926 242.167 264.992 243.5 269.059 243.5C270.926 243.5 272.459 243.267 273.659 242.8C274.926 242.267 275.926 241.567 276.659 240.7C277.459 239.767 277.992 238.7 278.259 237.5C278.592 236.3 278.726 235 278.659 233.6L291.859 234.4C291.992 236.733 291.692 239.1 290.959 241.5C290.292 243.833 289.059 245.967 287.259 247.9C285.526 249.833 283.126 251.4 280.059 252.6C277.059 253.8 273.359 254.4 268.959 254.4ZM308.438 253L291.838 200.5H307.138L317.638 241H318.038L328.838 200.5H343.338L326.738 253H308.438ZM343.877 268.8V256.1H398.577V268.8H343.877Z" fill="white"/>
</svg>
