<svg width="50" height="50" viewBox="0 0 50 50" fill="none" xmlns="http://www.w3.org/2000/svg">
<g clip-path="url(#clip0_1086_288)">
<path d="M36.6221 25.4158C35.0346 23.9751 33.033 22.8111 30.9909 21.6486C30.0627 21.1361 27.2143 18.9064 28.2002 15.7408L26.4268 14.9923C29.2174 10.6626 32.8565 6.38296 37.3159 2.37827C33.7346 3.58296 30.569 5.44702 28.1924 8.75015C29.5924 5.82046 31.8705 2.9314 34.3862 0.00170898C30.944 2.46733 27.9659 5.25952 26.1018 8.98608L27.4034 3.7689C25.5393 7.12202 24.2377 10.5236 23.7252 13.9173L20.983 12.8017L20.519 13.1767C22.9362 17.5064 21.683 19.7845 20.4705 20.583C18.0534 22.2111 14.5627 24.3017 12.7877 26.1173C9.4346 29.5673 8.45804 32.8236 8.78304 37.1533C9.10804 42.6955 13.1612 47.3017 18.5159 49.1158C20.8924 49.9126 23.0737 50.0033 25.4987 50.0033C29.4049 50.0033 33.4096 48.9783 36.3471 46.5126C37.8868 45.2353 39.1267 43.635 39.9789 41.825C40.8311 40.015 41.2747 38.0398 41.2784 36.0392C41.2854 34.0424 40.8749 32.0661 40.0734 30.2371C39.2718 28.4082 38.0968 26.767 36.6237 25.4189L36.6221 25.4158ZM29.2159 43.9048C29.0284 44.7423 28.4268 45.7689 27.6862 46.6955C27.9627 46.183 28.1987 45.6705 28.3377 45.108C29.5018 40.9658 30.0143 39.0611 29.4534 34.4955C29.3643 34.0314 29.1768 32.5423 28.4768 30.9142C27.5002 28.4408 26.0112 26.1126 25.8237 25.6001C25.4987 24.8111 25.0346 21.458 24.9862 19.1798C25.0346 21.133 25.1737 24.7142 25.6862 26.1142C25.8252 26.5861 27.1752 28.6783 28.1518 31.233C28.8034 33.0064 28.9409 34.6345 29.0799 35.0986C29.5518 37.1986 28.9909 40.7376 28.2502 44.083C28.0143 45.2955 27.3627 46.6955 26.5252 47.7611C26.9893 47.1095 27.3627 46.272 27.6409 45.2955C28.2018 43.3423 28.4299 40.8283 28.3815 39.2408C28.3409 38.3126 27.9174 36.3111 27.2174 34.497C26.8018 33.5205 26.1924 32.4955 25.7768 31.7955C25.3127 31.0955 25.3127 29.5658 25.1252 27.7908C25.1659 29.7033 24.9862 30.6798 25.4502 32.0314C25.7268 32.8205 26.7518 33.9361 27.0284 35.0095C27.4518 36.4501 27.8659 38.0376 27.8252 39.0142C27.8252 40.1298 27.7768 42.1798 27.2643 44.4173C26.9393 46.0861 26.1893 47.5345 24.9862 48.4626C25.444 47.8932 25.7619 47.2242 25.9143 46.5095C26.1018 45.533 26.1502 44.597 26.2393 43.433C26.3348 42.2344 26.258 41.0284 26.0112 39.8517C25.6362 38.1751 25.0346 36.4986 24.7502 35.3345C24.7987 36.6361 25.3112 38.2642 25.5471 39.9892C25.7268 41.2501 25.6362 42.5033 25.5877 43.6189C25.5471 44.9205 25.1237 47.208 24.5627 48.322C24.0018 48.0861 23.8221 47.7611 23.4471 47.297C22.9752 46.6955 22.6987 46.0439 22.4221 45.2955C22.1624 44.6799 21.9579 44.0425 21.8112 43.3908C21.5938 41.7604 22.0105 40.1088 22.9752 38.7767C23.9518 37.3767 24.1471 37.2876 24.4643 35.6595C24.0002 37.1001 23.6752 37.2376 22.6502 38.4501C21.4862 39.8017 21.308 41.7548 21.308 43.3408C21.308 43.9923 21.5846 44.7408 21.8205 45.4408C22.0971 46.1814 22.3737 46.922 22.7487 47.483C23.0252 47.947 23.4002 48.272 23.7252 48.508C22.5127 48.183 21.2596 47.7189 20.4705 47.0673C18.5174 45.383 16.7924 42.5501 16.5565 40.0361C16.369 37.9845 18.233 35.0064 20.8862 33.5173C23.1237 32.2158 23.6362 30.7673 24.1002 28.3908C23.4487 30.4423 22.7987 32.2158 20.6502 33.2814C17.5815 34.958 15.9955 37.6595 16.1424 40.2642C16.3705 43.5689 17.6721 45.8548 20.333 47.6705C20.9346 48.0939 21.7737 48.508 22.6612 48.8345C19.3487 48.0455 18.9346 47.5814 17.819 46.2798C17.819 46.1814 17.5346 45.9955 17.5346 45.9548C16.0455 44.2783 14.1893 41.3892 13.5299 38.7361C13.3018 37.808 13.0659 36.8314 13.3502 35.8955C14.5549 31.5173 17.208 29.8408 19.8612 28.0345C20.5205 27.5626 21.1721 27.147 21.7737 26.683C23.2627 25.5111 23.6377 22.4923 23.9627 20.7673C23.3612 22.8673 22.7018 25.4705 21.5377 26.3095C20.9362 26.7736 20.1862 27.147 19.5846 27.5626C16.8424 29.4267 14.0909 31.2001 12.8377 35.7095C12.5534 36.8814 12.7393 37.7189 13.0174 38.8345C13.7174 41.5767 15.5815 44.5548 17.1674 46.3298L17.444 46.6064C18.1677 47.4178 19.0784 48.0404 20.0971 48.4205C19.1617 48.2011 18.255 47.8733 17.3955 47.4439C13.0659 45.3517 10.1846 40.8361 9.99867 37.158C9.62367 29.6626 13.2127 27.4736 16.558 24.7236C18.4221 23.1939 21.0346 22.4455 22.5237 19.7017C22.8002 19.0908 22.9877 17.7892 22.6127 16.3892C22.4737 15.9251 21.7752 14.2486 21.4971 13.8751L25.6393 15.6986C25.5502 17.6517 25.5002 19.2298 25.8674 20.6798C26.2909 22.258 28.3409 24.5376 29.1799 27.1986C30.808 32.2205 30.3924 38.7783 29.2205 43.9064L29.2159 43.9048Z" fill="black"/>
</g>
<defs>
<clipPath id="clip0_1086_288">
<rect width="50" height="50" fill="white"/>
</clipPath>
</defs>
</svg>
