<svg width="50" height="50" viewBox="0 0 50 50" fill="none" xmlns="http://www.w3.org/2000/svg">
<g clip-path="url(#clip0_1105_294)">
<path d="M36.0481 19.8417L42.6773 26.4708C43.753 27.5322 44.6081 28.7959 45.1935 30.1891C45.7788 31.5824 46.0827 33.0776 46.0878 34.5888C46.0928 36.1 45.7989 37.5972 45.223 38.9944C44.647 40.3915 43.8003 41.6609 42.7318 42.7295C41.6632 43.798 40.3938 44.6447 38.9967 45.2206C37.5996 45.7966 36.1023 46.0905 34.5911 46.0855C33.0799 46.0804 31.5847 45.7765 30.1915 45.1911C28.7982 44.6058 27.5345 43.7507 26.4731 42.675L24.2648 40.4667C23.9662 40.1785 23.728 39.8338 23.564 39.4526C23.4001 39.0714 23.3137 38.6614 23.3099 38.2465C23.3061 37.8316 23.3849 37.42 23.5419 37.0359C23.6988 36.6518 23.9307 36.3028 24.224 36.0092C24.5173 35.7157 24.8661 35.4835 25.25 35.3261C25.634 35.1688 26.0455 35.0896 26.4604 35.093C26.8753 35.0964 27.2854 35.1824 27.6668 35.346C28.0481 35.5096 28.3931 35.7475 28.6815 36.0458L30.894 38.2562C31.8723 39.2258 33.1949 39.7683 34.5723 39.7651C35.9497 39.7619 37.2697 39.2132 38.2435 38.2391C39.2173 37.265 39.7656 35.9448 39.7685 34.5675C39.7713 33.1901 39.2284 31.8677 38.2586 30.8896L31.6294 24.2604C30.9129 23.5436 30.0028 23.0514 29.0107 22.8442C28.0185 22.6369 26.9875 22.7237 26.044 23.0937C25.7065 23.2271 25.394 23.3646 25.0981 23.5021L24.1315 23.9542C22.8398 24.5375 21.8461 24.7875 20.5815 23.525C18.7648 21.7083 19.2356 20.0312 21.4502 18.5042C23.6566 16.9869 26.3244 16.29 28.9909 16.5343C31.6574 16.7787 34.1542 17.9488 36.0481 19.8417ZM23.5273 7.32082L25.7356 9.52916C26.3052 10.1183 26.6205 10.9075 26.6138 11.7269C26.6071 12.5462 26.2788 13.3302 25.6996 13.9099C25.1205 14.4895 24.3369 14.8186 23.5175 14.8261C22.6982 14.8336 21.9086 14.519 21.319 13.95L19.1086 11.7417C18.6282 11.2441 18.0536 10.8471 17.4183 10.574C16.7829 10.3008 16.0995 10.157 15.408 10.1508C14.7164 10.1446 14.0305 10.2762 13.3904 10.5379C12.7502 10.7996 12.1686 11.1861 11.6794 11.675C11.1903 12.1639 10.8034 12.7453 10.5413 13.3853C10.2793 14.0253 10.1473 14.7111 10.1531 15.4027C10.1589 16.0942 10.3024 16.7777 10.5752 17.4132C10.848 18.0487 11.2446 18.6236 11.7419 19.1042L18.3711 25.7333C19.0876 26.4502 19.9977 26.9424 20.9898 27.1496C21.9819 27.3568 23.0129 27.2701 23.9565 26.9C24.294 26.7667 24.6065 26.6292 24.9023 26.4917L25.869 26.0396C27.1606 25.4562 28.1565 25.2062 29.419 26.4687C31.2356 28.2854 30.7648 29.9625 28.5502 31.4896C26.3439 33.0068 23.676 33.7037 21.0095 33.4594C18.343 33.2151 15.8462 32.045 13.9523 30.1521L7.32313 23.5229C6.24743 22.4615 5.3923 21.1978 4.80698 19.8046C4.22166 18.4114 3.91772 16.9161 3.91266 15.4049C3.9076 13.8937 4.20151 12.3965 4.77748 10.9994C5.35345 9.60224 6.20009 8.33284 7.26867 7.26427C8.33724 6.1957 9.60663 5.34905 11.0038 4.77309C12.4009 4.19712 13.8981 3.9032 15.4093 3.90827C16.9205 3.91333 18.4158 4.21727 19.809 4.80259C21.2022 5.3879 22.4659 6.24512 23.5273 7.32082Z" fill="white"/>
</g>
<defs>
<clipPath id="clip0_1105_294">
<rect width="50" height="50" fill="white"/>
</clipPath>
</defs>
</svg>
