<svg width="50" height="50" viewBox="0 0 50 50" fill="none" xmlns="http://www.w3.org/2000/svg">
<g clip-path="url(#clip0_1086_284)">
<path fill-rule="evenodd" clip-rule="evenodd" d="M38.5 20.0402C38.5 21.3845 36.868 22.0501 35.9278 21.0893L16.6807 1.41758C19.2833 0.499483 22.0833 0 25 0C29.9728 0 34.6063 1.45183 38.5 3.95475V20.0402ZM45.5 10.6871V20.0402C45.5 27.6578 36.2517 31.4295 30.9245 25.9848L10.2264 4.83013C4.02555 9.37965 0 16.7197 0 25C0 30.3235 1.6639 35.2583 4.5 39.3128V30.0098C4.5 22.3923 13.7483 18.6205 19.0756 24.0653L39.7453 45.1908C45.962 40.6428 50 33.293 50 25C50 19.6765 48.336 14.7417 45.5 10.6871ZM14.0722 28.9608L33.283 48.5953C30.6907 49.5053 27.903 50 25 50C20.0273 50 15.3937 48.5483 11.5 46.0453V30.0098C11.5 28.6655 13.1321 28 14.0722 28.9608Z" fill="url(#paint0_linear_1086_284)"/>
</g>
<defs>
<linearGradient id="paint0_linear_1086_284" x1="50" y1="2.98023e-06" x2="8.9407e-06" y2="50" gradientUnits="userSpaceOnUse">
<stop offset="0.231667" stop-color="#FF884D"/>
<stop offset="0.801667" stop-color="#E300BD"/>
</linearGradient>
<clipPath id="clip0_1086_284">
<rect width="50" height="50" fill="white"/>
</clipPath>
</defs>
</svg>
