<svg width="50" height="50" viewBox="0 0 50 50" fill="none" xmlns="http://www.w3.org/2000/svg">
<path d="M23.0625 26.7708C24.6667 23.875 27.75 22.1667 29.5417 19.6042C31.4375 16.9167 30.375 11.8958 25 11.8958C21.4792 11.8958 19.75 14.5625 19.0208 16.7708L13.625 14.5C15.1042 10.0625 19.125 6.25 24.9792 6.25C29.875 6.25 33.2292 8.47917 34.9375 11.2708C36.3958 13.6667 37.25 18.1458 35 21.4792C32.5 25.1667 30.1042 26.2917 28.8125 28.6667C28.2917 29.625 28.0833 30.25 28.0833 33.3333H22.0625C22.0417 31.7083 21.7917 29.0625 23.0625 26.7708ZM29.1667 41.6667C29.1667 43.9583 27.2917 45.8333 25 45.8333C22.7083 45.8333 20.8333 43.9583 20.8333 41.6667C20.8333 39.375 22.7083 37.5 25 37.5C27.2917 37.5 29.1667 39.375 29.1667 41.6667Z" fill="white"/>
</svg>
